<svg width="80" height="58" viewBox="0 0 80 58" fill="none" xmlns="http://www.w3.org/2000/svg">
<rect x="7.30273" y="2.00009" width="65.3953" height="53.0233" stroke="#78BA7B" stroke-width="4" stroke-linejoin="round"/>
<path d="M2 46.1861C5.40741 43.8295 17.8222 39.1164 40.2222 39.1164C62.6222 39.1164 74.7407 43.8295 78 46.1861" stroke="#78BA7B" stroke-width="4" stroke-linecap="round" stroke-linejoin="round"/>
<circle cx="20.5581" cy="17.0233" r="6.18605" fill="#78BA7B"/>
<path d="M39.1191 24.093V26.093C39.9508 26.093 40.6957 25.5783 40.9898 24.8004C41.284 24.0225 41.0661 23.1438 40.4425 22.5935L39.1191 24.093ZM56.7883 24.9766V22.9766C55.9567 22.9766 55.2118 23.4913 54.9176 24.2692C54.6235 25.0471 54.8414 25.9258 55.4649 26.4761L56.7883 24.9766ZM39.9223 21.4418C39.9223 20.5941 40.6095 19.9069 41.4572 19.9069V15.9069C38.4004 15.9069 35.9223 18.385 35.9223 21.4418H39.9223ZM40.4425 22.5935C40.1206 22.3093 39.9223 21.8999 39.9223 21.4418H35.9223C35.9223 23.0952 36.6499 24.5813 37.7957 25.5925L40.4425 22.5935ZM33.8141 26.093H39.1191V22.093H33.8141V26.093ZM32.2793 27.6278C32.2793 26.7802 32.9665 26.093 33.8141 26.093V22.093C30.7573 22.093 28.2793 24.571 28.2793 27.6278H32.2793ZM33.8142 29.1627C32.9665 29.1627 32.2793 28.4755 32.2793 27.6278H28.2793C28.2793 30.6847 30.7573 33.1627 33.8142 33.1627V29.1627ZM54.4503 29.1627H33.8142V33.1627H54.4503V29.1627ZM55.9851 27.6278C55.9851 28.4755 55.298 29.1627 54.4503 29.1627V33.1627C57.5071 33.1627 59.9851 30.6847 59.9851 27.6278H55.9851ZM55.4649 26.4761C55.7869 26.7603 55.9851 27.1697 55.9851 27.6278H59.9851C59.9851 25.9744 59.2576 24.4884 58.1118 23.4771L55.4649 26.4761ZM62.0933 22.9766H56.7883V26.9766H62.0933V22.9766ZM63.6282 21.4418C63.6282 22.2894 62.941 22.9766 62.0933 22.9766V26.9766C65.1501 26.9766 67.6282 24.4986 67.6282 21.4418H63.6282ZM62.0933 19.9069C62.941 19.9069 63.6282 20.5941 63.6282 21.4418H67.6282C67.6282 18.385 65.1501 15.9069 62.0933 15.9069V19.9069ZM41.4572 19.9069H62.0933V15.9069H41.4572V19.9069Z" fill="#78BA7B"/>
</svg>
